HIERARCHY
ROOT Hips
{
	OFFSET 0.00000 0.00000 0.00000
	CHANNELS 6 Xposition Yposition Zposition Zrotation Yrotation Xrotation 
	JOINT LHipJoint
	{
		OFFSET 0 0 0
		CHANNELS 3 Zrotation Yrotation Xrotation
		JOINT LeftUpLeg
		{
			OFFSET 1.64549 -1.70879 0.84566
			CHANNELS 3 Zrotation Yrotation Xrotation
			JOINT LeftLeg
			{
				OFFSET 2.24963 -6.18082 0.00000
				CHANNELS 3 Zrotation Yrotation Xrotation
				JOINT LeftFoot
				{
					OFFSET 2.71775 -7.46697 0.00000
					CHANNELS 3 Zrotation Yrotation Xrotation
					JOINT LeftToeBase
					{
						OFFSET 0.18768 -0.51564 2.24737
						CHANNELS 3 Zrotation Yrotation Xrotation
						End Site
						{
							OFFSET 0.00000 -0.00000 1.15935
						}
					}
				}
			}
		}
	}
	JOINT RHipJoint
	{
		OFFSET 0 0 0
		CHANNELS 3 Zrotation Yrotation Xrotation
		JOINT RightUpLeg
		{
			OFFSET -1.58830 -1.70879 0.84566
			CHANNELS 3 Zrotation Yrotation Xrotation
			JOINT RightLeg
			{
				OFFSET -2.25006 -6.18201 0.00000
				CHANNELS 3 Zrotation Yrotation Xrotation
				JOINT RightFoot
				{
					OFFSET -2.72829 -7.49593 0.00000
					CHANNELS 3 Zrotation Yrotation Xrotation
					JOINT RightToeBase
					{
						OFFSET -0.21541 -0.59185 2.10643
						CHANNELS 3 Zrotation Yrotation Xrotation
						End Site
						{
							OFFSET -0.00000 -0.00000 1.09838
						}
					}
				}
			}
		}
	}
	JOINT LowerBack
	{
		OFFSET 0 0 0
		CHANNELS 3 Zrotation Yrotation Xrotation
		JOINT Spine
		{
			OFFSET 0.03142 2.10496 -0.11038
			CHANNELS 3 Zrotation Yrotation Xrotation
			JOINT Spine1
			{
				OFFSET -0.01863 2.10897 -0.06956
				CHANNELS 3 Zrotation Yrotation Xrotation
				JOINT Neck
				{
					OFFSET 0 0 0
					CHANNELS 3 Zrotation Yrotation Xrotation
					JOINT Neck1
					{
						OFFSET -0.02267 1.73238 0.00451
						CHANNELS 3 Zrotation Yrotation Xrotation
						JOINT Head
						{
							OFFSET -0.05808 1.54724 -0.61749
							CHANNELS 3 Zrotation Yrotation Xrotation
							End Site
							{
								OFFSET -0.01396 1.71468 -0.21082
							}
						}
					}
				}
				JOINT LeftShoulder
				{
					OFFSET 0 0 0
					CHANNELS 3 Zrotation Yrotation Xrotation
					JOINT LeftArm
					{
						OFFSET 3.44898 0.50298 0.21920
						CHANNELS 3 Zrotation Yrotation Xrotation
						JOINT LeftForeArm
						{
							OFFSET 5.41917 -0.00000 -0.00000
							CHANNELS 3 Zrotation Yrotation Xrotation
							JOINT LeftHand
							{
								OFFSET 2.44373 -0.00000 0.00000
								CHANNELS 3 Zrotation Yrotation Xrotation
								JOINT LeftFingerBase
								{
									OFFSET 0 0 0
									CHANNELS 3 Zrotation Yrotation Xrotation
									JOINT LeftHandIndex1
									{
										OFFSET 0.72750 -0.00000 0.00000
										CHANNELS 3 Zrotation Yrotation Xrotation
										End Site
										{
											OFFSET 0.58653 -0.00000 0.00000
										}
									}
								}
								JOINT LThumb
								{
									OFFSET 0 0 0
									CHANNELS 3 Zrotation Yrotation Xrotation
									End Site
									{
										OFFSET 0.59549 -0.00000 0.59549
									}
								}
							}
						}
					}
				}
				JOINT RightShoulder
				{
					OFFSET 0 0 0
					CHANNELS 3 Zrotation Yrotation Xrotation
					JOINT RightArm
					{
						OFFSET -3.23015 0.55830 0.31051
						CHANNELS 3 Zrotation Yrotation Xrotation
						JOINT RightForeArm
						{
							OFFSET -5.58976 -0.00010 0.00014
							CHANNELS 3 Zrotation Yrotation Xrotation
							JOINT RightHand
							{
								OFFSET -2.48060 -0.00000 0.00000
								CHANNELS 3 Zrotation Yrotation Xrotation
								JOINT RightFingerBase
								{
									OFFSET 0 0 0
									CHANNELS 3 Zrotation Yrotation Xrotation
									JOINT RightHandIndex1
									{
										OFFSET -0.81601 -0.00000 0.00000
										CHANNELS 3 Zrotation Yrotation Xrotation
										End Site
										{
											OFFSET -0.65789 -0.00000 0.00000
										}
									}
								}
								JOINT RThumb
								{
									OFFSET 0 0 0
									CHANNELS 3 Zrotation Yrotation Xrotation
									End Site
									{
										OFFSET -0.66793 -0.00000 0.66793
									}
								}
							}
						}
					}
				}
			}
		}
	}
}
MOTION
Frames: 14
Frame Time: 0.025641
0.00 0.00 0.00 0 0 0 0 0 0 -21 0 0 0 0 0 0 0 0 0 0 0 0 0 0 21 0 0 0 0 0 0 0 0 0 0 0 0 0 0 0 0 0 0 0 0 0 0 -16 0 0 21 0 0 11 0 0 0 -8 0 0 0 0 0 0 0 0 0 0 0 0 0 0 0 0 0 0 0 0 8 0 0 0 0 0 0 0 0 0 0 0 0 0 0 0 0 0
0.00 0.00 0.00 -180.6500 4.2319 -154.8390 0.0000 0.0000 0.0000 -25.7987 -12.6836 -13.9076 2.4425 9.7326 28.1152 4.7698 6.5252 -43.7995 0.7583 -5.5613 -15.5166 0.0000 0.0000 0.0000 5.7742 22.2935 -72.6513 -4.9717 -13.3519 40.7004 0.9351 -16.8644 -5.0392 -0.0286 -1.0924 3.0031 -2.2977 -2.5961 0.6008 -0.0148 -3.0936 -7.7200 1.4699 -1.1348 -8.2999 0.8442 2.4010 -24.1687 -0.0779 3.4372 23.9612 0.4424 1.7286 11.8889 0.0000 0.0000 0.0000 -79.7369 -14.3955 79.1445 15.9614 -25.4683 -3.6294 -0.0000 -0.0000 38.2334 3.9813 10.6484 0.7368 -7.1250 0.0000 -0.0000 -20.0286 39.8258 2.6794 0.0000 0.0000 0.0000 80.0643 -3.4199 42.9767 -23.0136 34.1037 -7.1459 0.0000 -0.0000 -1.8710 -8.3185 18.6654 -2.6792 7.1250 -0.0000 -0.0000 12.9021 -11.4867 10.3468
0.00 0.00 0.00 -181.3150 2.8380 -157.2690 0.0000 0.0000 0.0000 -27.4732 -11.6632 -5.8422 2.4201 9.6911 27.9822 5.0235 6.6772 -44.9253 1.2705 -7.1441 -20.1431 0.0000 0.0000 0.0000 8.3887 19.4173 -73.2565 -7.1146 -15.4276 49.3063 0.3703 -12.0886 1.5485 -0.1910 -2.8148 7.7637 -2.1634 -3.0082 -1.4560 -0.0183 -3.5293 -7.5780 1.3140 -1.3652 -6.9381 0.8919 2.2940 -24.3752 -0.1534 3.5457 26.4165 0.4750 1.8296 12.9066 0.0000 -0.0000 0.0000 -80.2789 -26.0005 56.8275 9.4460 -15.8684 -1.3194 -0.0000 -0.0000 50.8989 -3.0633 17.8313 -0.9388 -7.1250 0.0000 -0.0000 -28.7301 45.6358 -0.4920 0.0000 -0.0000 0.0000 72.3264 3.7648 20.5502 -10.1463 16.9681 -1.5174 0.0000 0.0000 19.5869 -1.2283 15.5833 -0.3300 7.1250 -0.0000 -0.0000 17.6307 -14.8635 13.1673
0.00 0.00 0.00 -180.4760 1.3028 -157.8720 0.0000 0.0000 0.0000 -26.7572 -11.6360 -2.7618 2.6884 10.1728 29.5380 5.1323 5.8761 -45.0639 1.3675 -7.4010 -20.9090 0.0000 0.0000 0.0000 10.0967 18.7630 -72.6025 -8.5973 -16.5414 54.6866 0.2872 -9.6470 -5.6150 -0.6573 -5.1857 14.4389 -0.3045 -3.4315 -2.9365 0.4662 -3.7762 -8.8225 0.7461 -1.4743 -7.5159 0.4720 2.0142 -22.7237 -0.0356 3.7161 28.7020 0.6593 2.0076 13.5045 0.0000 0.0000 0.0000 -78.7261 -30.2510 45.1275 8.3122 -14.0576 -1.0266 -0.0000 -0.0000 61.2567 -3.4165 19.3278 -1.1320 -7.1250 0.0000 -0.0000 -29.7742 46.9018 -1.5301 0.0000 0.0000 0.0000 66.8850 6.0041 -9.7062 -5.6325 9.6478 -0.4757 0.0000 0.0000 47.9692 -3.4421 15.1645 -0.9014 7.1250 -0.0000 -0.0000 16.2157 -15.1782 11.8980
0.00 0.00 0.00 -180.0960 -0.2720 -158.1050 0.0000 0.0000 0.0000 -25.9212 -11.6113 -1.0925 2.8290 10.4129 30.3245 4.7436 5.9766 -43.4674 1.7804 -8.3929 -23.9139 0.0000 0.0000 0.0000 11.1190 18.3365 -71.8713 -9.2985 -16.9960 57.1168 0.2301 -10.0615 -9.4816 -0.5644 -4.8118 13.3727 0.7829 -2.3769 -4.5032 0.5043 -4.2865 -9.4491 0.2392 -2.6402 -7.3750 0.0992 1.7150 -21.3119 0.0070 3.6944 29.6789 0.7484 2.0583 13.6126 -0.0000 0.0000 0.0000 -76.6160 -33.4728 43.8183 8.1719 -13.8311 -0.9928 -0.0000 -0.0000 62.1060 -3.7728 19.9427 -1.2885 -7.1250 0.0000 -0.0000 -30.4026 47.3886 -1.9673 -0.0000 0.0000 0.0000 62.9699 7.8809 -42.6712 -4.3104 7.4171 -0.2795 0.0000 0.0000 78.5866 -5.8311 12.9993 -1.3160 7.1250 -0.0000 -0.0000 14.7621 -17.1677 10.0896
0.00 0.00 0.00 -179.6770 -2.1508 -158.3400 0.0000 0.0000 0.0000 -24.7326 -11.5334 0.6392 2.8543 10.4554 30.4645 3.9855 6.4616 -40.2993 2.1763 -9.2240 -26.4985 0.0000 0.0000 0.0000 12.3759 17.8233 -70.1112 -9.6201 -17.1906 58.2108 0.1299 -10.9917 -13.5335 -0.9855 -6.3187 17.7119 1.8243 -2.5015 -6.2549 0.7359 -4.6129 -9.7803 -0.1897 -2.9302 -6.8027 -0.5034 1.2841 -20.4363 0.1155 3.4681 30.4378 0.8696 1.9797 13.7371 -0.0000 -0.0000 0.0000 -73.5595 -36.9254 48.8065 8.4112 -14.2172 -1.0508 -0.0000 -0.0000 56.0926 -2.5533 20.8576 -0.9096 -7.1250 0.0000 -0.0000 -29.8333 48.3539 -2.6924 -0.0000 -0.0000 0.0000 58.7643 10.0697 -76.0411 -4.8321 8.3009 -0.3509 0.0000 0.0000 108.8690 -7.2676 11.3787 -1.4413 7.1250 -0.0000 -0.0000 13.8843 -18.6877 8.9702
0.00 0.00 0.00 -181.4710 -12.8619 -159.3970 0.0000 0.0000 0.0000 -22.0676 -9.0532 -7.3475 2.9134 10.5536 30.7887 1.1547 15.3654 -30.9378 0.1627 2.5987 7.1633 0.0000 0.0000 0.0000 12.6192 18.7819 -48.7404 -6.2783 -14.6927 46.0887 2.2195 -25.3866 -12.8123 -1.2793 -7.1680 20.2141 0.5941 -3.8625 -10.2507 1.5182 -6.5005 -10.0113 0.9058 -3.8174 -4.6589 -0.2825 -1.5881 -17.3744 -0.8845 1.5764 37.1517 0.3143 1.7138 16.2027 -0.0000 0.0000 0.0000 -64.8136 -54.7779 41.2351 8.7286 -14.7269 -1.1301 -0.0000 -0.0000 55.9115 -2.0628 21.6917 -0.7627 -7.1250 0.0000 -0.0000 -29.8635 49.1511 -3.3277 -0.0000 0.0000 0.0000 40.8945 4.9334 -60.6230 -5.7436 9.8338 -0.4945 0.0000 0.0000 78.0250 -6.0873 8.2801 -0.8799 7.1250 -0.0000 -0.0000 14.9508 -21.7431 8.6405
0.00 0.00 0.00 -180.6610 -13.2024 -157.9050 0.0000 0.0000 0.0000 -23.1297 -10.1277 -23.3544 3.0718 10.8104 31.6432 -0.6423 17.1838 -17.0072 0.0368 1.2377 3.4031 0.0000 0.0000 0.0000 11.3191 18.3696 -52.4901 -5.8042 -14.2359 44.1907 5.1395 -37.0436 -7.7976 -4.7609 -13.1094 39.7793 1.5062 -2.5785 -8.8742 1.8923 -4.4346 -8.4272 0.9073 -2.6517 -3.7633 -0.4434 1.7600 -15.1079 0.5093 -2.1235 39.5918 -0.5504 -2.4061 16.9302 -0.0000 0.0000 0.0000 -58.4019 -59.6177 44.2052 9.6043 -16.1183 -1.3630 -0.0000 -0.0000 47.9367 -0.4099 21.3371 -0.1491 -7.1250 0.0000 -0.0000 -28.1989 49.0839 -3.0624 -0.0000 0.0000 0.0000 37.6349 4.7908 -54.8036 -6.2526 10.6829 -0.5852 0.0000 0.0000 62.4009 -3.0817 7.1633 -0.3846 7.1250 -0.0000 -0.0000 17.1953 -22.8621 9.5903
0.00 0.00 0.00 -175.8300 -10.8071 -161.5260 0.0000 0.0000 0.0000 -19.7178 -14.9175 -21.3708 3.2204 11.0435 32.4267 -0.8202 16.7383 -12.2273 1.2039 -6.9612 -19.6003 0.0000 0.0000 0.0000 11.9756 23.0611 -55.8134 -4.4842 -12.7783 38.5440 3.0735 -31.7135 -26.3153 -6.7596 -15.1261 47.9593 6.0541 -1.8867 -2.1493 2.4310 -2.8719 -6.3521 -0.7458 -1.8827 -5.5616 -0.3323 1.7881 -14.2703 1.8299 -2.7964 39.2024 -0.0866 -2.4917 16.5471 -0.0000 0.0000 0.0000 -52.6247 -54.7222 36.1370 10.1685 -17.0027 -1.5238 -0.0000 -0.0000 45.7247 4.7168 20.2527 1.6360 -7.1250 0.0000 -0.0000 -23.0274 48.8528 -2.3000 -0.0000 0.0000 0.0000 37.5666 5.7307 -41.7641 -6.6404 11.3260 -0.6592 0.0000 0.0000 49.0584 -2.8954 7.4145 -0.3740 7.1250 -0.0000 -0.0000 17.2967 -22.6233 9.7521
0.00 0.00 0.00 -177.5860 -7.2832 -162.8210 0.0000 0.0000 0.0000 -23.6299 -11.1341 -17.1970 2.8664 10.4756 30.5309 -0.2951 13.8930 -15.8190 0.6778 -5.2642 -14.6637 0.0000 0.0000 0.0000 6.3368 27.4550 -57.5457 -4.3592 -12.6237 37.9757 -0.7161 -23.5203 -37.1452 -8.5173 -16.4868 54.4052 2.8884 -1.4710 -1.0572 1.3759 -2.1347 -4.7978 -0.1260 -1.2577 -4.4046 0.7277 1.7764 -15.6367 1.8050 -2.9286 38.9859 -0.3027 -2.2886 16.7729 -0.0000 0.0000 0.0000 -47.0967 -52.2232 33.3439 10.5325 -17.5681 -1.6320 -0.0000 -0.0000 41.9126 4.2546 19.4690 1.4204 -7.1250 0.0000 -0.0000 -23.0783 48.0673 -1.8384 -0.0000 0.0000 0.0000 36.9509 6.5480 -49.2992 -6.1457 10.5050 -0.5655 0.0000 0.0000 55.9528 -3.5164 9.3504 -0.5720 7.1250 -0.0000 -0.0000 16.6484 -20.7608 10.0938
0.00 0.00 0.00 -181.6960 -4.8151 -164.2600 0.0000 0.0000 0.0000 -30.7615 -5.1825 -7.9078 2.3761 9.6090 27.7196 1.8317 9.4532 -30.4490 1.6632 -8.1262 -23.0981 0.0000 0.0000 0.0000 1.0392 25.1567 -60.9658 -4.3358 -12.5943 37.8683 1.1870 -27.4121 -31.5771 -7.3478 -15.6179 50.1778 -2.1872 -1.9040 0.3739 0.1399 -2.6932 -3.3320 1.4606 -1.3199 -3.5310 2.8741 -1.4247 -18.6150 -0.3808 0.3560 37.1661 -0.2766 1.6257 16.4906 -0.0000 -0.0000 0.0000 -36.2520 -40.2058 17.6988 9.7958 -16.4196 -1.4167 -0.0000 -0.0000 41.1416 3.4475 23.2177 1.3605 -7.1250 0.0000 -0.0000 -25.7377 51.3531 -4.2666 -0.0000 -0.0000 0.0000 31.0706 2.4373 -78.3972 -5.7725 9.8822 -0.4995 0.0000 0.0000 84.4694 -4.8824 8.0526 -0.6856 7.1250 -0.0000 -0.0000 15.8244 -21.9860 9.0933
0.00 0.00 0.00 -182.1570 -7.0518 -159.5660 0.0000 0.0000 0.0000 -29.5756 -9.2682 -8.1428 2.8721 10.4850 30.5620 1.6594 9.7731 -29.5619 2.9181 -10.5612 -30.8139 0.0000 0.0000 0.0000 6.3803 18.9637 -61.6386 -4.5235 -12.8262 38.7214 2.3272 -26.8138 -2.4577 -2.0149 -8.8969 25.4735 -0.6400 -2.2898 -4.3855 0.6813 -3.3785 -5.2413 1.0032 -1.8061 -2.8640 1.7293 -1.3305 -19.0812 -1.2350 0.9616 36.3106 -0.3593 1.4952 16.1826 -0.0000 -0.0000 0.0000 -36.1082 -29.5188 -6.1498 8.0958 -13.7081 -0.9747 -0.0000 -0.0000 46.4848 3.9814 25.4000 1.7100 -7.1250 0.0000 -0.0000 -26.5487 53.3964 -5.8038 -0.0000 -0.0000 0.0000 28.3189 -7.2409 -96.0798 -6.3789 10.8925 -0.6088 0.0000 0.0000 96.6290 -6.4022 5.9282 -0.6640 7.1250 -0.0000 -0.0000 14.9604 -24.0235 7.8335
0.00 0.00 0.00 -181.4530 -6.8668 -159.0720 0.0000 0.0000 0.0000 -27.8014 -8.6454 -8.9878 3.4272 11.3564 33.4916 0.5825 11.5843 -22.8952 2.9611 -10.6318 -31.0479 0.0000 0.0000 0.0000 8.3652 21.2724 -58.2297 -4.5671 -12.8790 38.9174 2.5415 -26.9144 -8.6007 -2.4241 -9.6985 28.0058 0.6399 -1.9293 -5.3497 0.6291 -3.0177 -5.7326 0.2178 -1.7076 -2.9103 0.6472 2.1373 -18.4777 0.2061 -0.2390 36.2652 -0.3697 -1.0235 16.0104 0.0000 0.0000 0.0000 -35.9874 -26.0780 -39.2929 6.0722 -10.3825 -0.5522 -0.0000 -0.0000 55.5007 5.6434 28.8711 2.7316 -7.1250 0.0000 -0.0000 -27.3580 56.7918 -8.3351 0.0000 0.0000 0.0000 29.0331 -9.7983 -114.1457 -7.0826 12.0552 -0.7488 0.0000 0.0000 102.6110 -7.4316 3.7245 -0.4855 7.1250 -0.0000 -0.0000 14.4542 -26.1651 6.8048
0.00 0.00 0.00 -181.9770 -5.1841 -158.5670 0.0000 0.0000 0.0000 -25.5031 -5.5019 -21.3446 7.3881 15.6502 50.3274 -0.6853 14.7919 -8.7753 0.9092 -6.0761 -17.0053 0.0000 0.0000 0.0000 8.9417 23.5603 -54.4791 -5.3313 -13.7474 42.2349 1.6665 -22.6150 -13.8044 -2.2927 -9.4509 27.2162 -0.2998 -1.1055 -5.9322 -0.1589 -2.0070 -6.3111 -0.0438 -1.2288 -3.1869 0.3443 1.9193 -16.5887 0.8650 -0.8180 35.7931 -0.1388 -1.2648 15.3297 0.0000 0.0000 0.0000 -35.7712 -23.9637 -75.5746 6.2403 -10.6624 -0.5829 -0.0000 -0.0000 22.1037 20.8292 30.9899 11.0832 -7.1250 0.0000 -0.0000 -12.9903 62.2438 -5.4958 0.0000 0.0000 0.0000 31.7158 -8.0373 -130.4450 -7.5468 12.8155 -0.8488 0.0000 0.0000 76.9600 -15.6581 1.7213 -0.4824 7.1250 -0.0000 -0.0000 8.4335 -28.1554 3.4909
